<svg width="663" height="767" viewBox="0 0 663 767" fill="none" xmlns="http://www.w3.org/2000/svg">
<path d="M120.4 347H168.1L328.6 231.1L489.5 347H538.8L327 202.3L120.4 347Z" fill="white"/>
<path d="M332.7 308.5H359.3V283H332.7V308.5Z" fill="white"/>
<path d="M324.6 308.5V283H299.2V308.5H324.6Z" fill="white"/>
<path d="M324.6 316.7H299.2V340.9H324.6V316.7Z" fill="white"/>
<path d="M332.7 316.7V340.9H359.3V316.7H332.7Z" fill="white"/>
<path d="M521.7 623.1C485.7 616.8 141.9 623.1 141.9 623.1C146.2 624 177.3 641 213.2 661.2H451.1C489.3 640.4 521.7 623.1 521.7 623.1Z" fill="#DD2120"/>
<path d="M331.7 729C339.9 723.2 362.3 710.3 388.9 695.5H273.4C306 714.1 331.7 729 331.7 729Z" fill="#DD2120"/>
<path d="M213.2 661.2C233.1 672.4 254.4 684.6 273.4 695.5H388.9C408.7 684.4 430.7 672.3 451.1 661.2H213.2Z" fill="white"/>
<path d="M597.6 299.2H505.9L561.2 340.9H597.3V347H597.6V340.9V299.2Z" fill="white"/>
<path d="M622.2 206.3L499.5 153.6L484.6 187.1V221.9H597.6V262.7H457.5L505.9 299.2H597.6V340.9V347H622.2V206.3Z" fill="#DD2120"/>
<path d="M597.6 221.9H484.6V253.1H444.8L457.5 262.7H597.6V221.9Z" fill="white"/>
<path d="M235.1 238.9H173V182.4L169.6 176.2L62.4 223.8V347H87.3L235.1 238.9Z" fill="#07315A"/>
<path d="M169.6 176.2L158.4 155.6L37.9 206.4V347H62.4V223.8L169.6 176.2Z" fill="#DD2120"/>
<path d="M147.1 201.2L152.6 218.4H170.7L156.1 229L161.7 246.1L147.1 235.5L132.5 246.1L138.1 229L123.5 218.4H141.5L147.1 201.2Z" fill="white"/>
<path d="M101.5 242.3L106.7 258.3H123.5L109.9 268.1L115.1 284.1L101.5 274.2L88 284.1L93.1 268.1L79.6 258.3H96.3L101.5 242.3Z" fill="white"/>
<path d="M142.4 280.1L147.5 296.1H164.3L150.8 305.9L155.9 321.9L142.4 312L128.8 321.9L134 305.9L120.4 296.1H137.2L142.4 280.1Z" fill="white"/>
<path d="M98.5 314L102.7 327H116.4L105.3 335L109.5 348L98.5 340L87.4 348L91.6 335L80.6 327H94.2L98.5 314Z" fill="white"/>
<path d="M179.8 252.2L183.2 262.8H194.3L185.3 269.3L188.8 279.8L179.8 273.3L170.8 279.8L174.2 269.3L165.2 262.8H176.3L179.8 252.2Z" fill="white"/>
<path d="M189.8 223.7V185.8C189.8 185.8 300.5 142 468 185.8V223.7C468 223.7 414.3 206.4 383 210.1L328.9 172.6L275.5 209.5C275.5 209.5 238 207.8 189.8 223.7Z" fill="white"/>
<path d="M601.3 533.4C601.3 533.4 596.7 593.1 556.8 617.2L331.8 744.8L106.8 617.2C66.9 593.1 62.3 533.4 62.3 533.4H41.2L41.7 541.1C44.6 583.3 68.7 621.1 105.7 641.5L331.8 766.6L557.9 641.5C594.9 621.1 619 583.3 621.9 541.1L622.4 533.4H601.3Z" fill="#DD2120"/>
<path fill-rule="evenodd" clip-rule="evenodd" d="M515.5 96C503.9 107.2 471.8 171.9 471.8 171.9C438.6 148.6 328.9 148.6 328.9 148.6C328.9 148.6 219.3 148.6 186 171.9C186 171.9 153.9 107.2 142.4 96C142.4 96 193.3 102.5 179.8 124.5C179.8 124.5 210.2 146.5 216.3 134C222.2 121.7 221.9 93.7 214.1 65.3C207.2 64.9 201.8 59.2 201.8 52.2C201.8 44.9 207.7 39 215 39C222.2 39 228.1 44.9 228.1 52.2C228.1 56.6 225.9 60.5 222.6 62.9C227.7 70.3 260.6 115.7 278.8 105.1C296.5 94.7 311.5 69 324.4 27.4C318.6 25.9 314.2 20.6 314.2 14.2C314.2 6.7 320.3 0.600006 327.8 0.600006C335.4 0.600006 341.5 6.7 341.5 14.2C341.5 19.9 338 24.7 333.1 26.8L333.3 27C346.2 68.8 361.3 94.7 379 105.1C397.2 115.7 430.1 70.3 435.3 62.9C431.9 60.5 429.7 56.6 429.7 52.2C429.7 44.9 435.6 39 442.9 39C450.2 39 456.1 44.9 456.1 52.2C456.1 59.2 450.6 64.9 443.7 65.3C436 93.7 435.7 121.7 441.6 134C447.6 146.5 478.1 124.5 478.1 124.5C464.5 102.5 515.5 96 515.5 96ZM377.9 140.9C377.9 140.9 342.2 115.1 327.3 88.1C327.3 88.1 318.3 107.9 276.9 140.9C276.9 140.9 334.7 138.3 377.9 140.9Z" fill="white"/>
<path fill-rule="evenodd" clip-rule="evenodd" d="M357.7 412V455.7C357.7 483.1 335.6 505.2 308.2 505.2H295.5C268.1 505.2 245.9 483.1 245.9 455.7V412C245.9 384.7 268.1 362.5 295.5 362.5H308.2C335.6 362.5 357.7 384.7 357.7 412ZM320.8 403.8C320.8 393.6 312.5 385.3 302.3 385.3C292.1 385.3 283.8 393.6 283.8 403.8V464.3C283.8 474.5 292.1 482.7 302.3 482.7C312.5 482.7 320.8 474.5 320.8 464.3V403.8Z" fill="#EFE3D3"/>
<path fill-rule="evenodd" clip-rule="evenodd" d="M232.7 549.5V572.3C232.7 586.5 221.1 598.1 206.9 598.1H200.3C186 598.1 174.5 586.5 174.5 572.3V549.5C174.5 535.3 186 523.8 200.3 523.8H206.9C221.1 523.8 232.7 535.3 232.7 549.5ZM213.5 545.2C213.5 539.9 209.1 535.6 203.8 535.6C198.5 535.6 194.2 539.9 194.2 545.2V576.7C194.2 582 198.5 586.4 203.8 586.4C209.1 586.4 213.5 582 213.5 576.7V545.2Z" fill="#EFE3D3"/>
<path fill-rule="evenodd" clip-rule="evenodd" d="M308.7 549.5V572.3C308.7 586.5 297.2 598.1 283 598.1H276.3C262.1 598.1 250.6 586.5 250.6 572.3V549.5C250.6 535.3 262.1 523.8 276.3 523.8H283C297.2 523.8 308.7 535.3 308.7 549.5ZM289.5 545.2C289.5 539.9 285.2 535.6 279.9 535.6C274.6 535.6 270.3 539.9 270.3 545.2V576.7C270.3 582 274.6 586.4 279.9 586.4C285.2 586.4 289.5 582 289.5 576.7V545.2Z" fill="#EFE3D3"/>
<path fill-rule="evenodd" clip-rule="evenodd" d="M234.4 496.9V503.9H188.9V498.5C188.9 497.767 188.767 497.067 188.5 496.4L170.1 451.9H158.2V492.7C158.2 493.6 158.5 494.6 159.1 495.4L164.7 503.9H116.7L121.6 493.2C121.9 492.6 122 491.9 122 491.3V381.4C122 381.4 120 372.3 114.6 370.9V365.6H189.8C210.2 365.6 226.7 382.1 226.7 402.5V420.1C226.7 434 215.5 445.2 201.6 445.2C201.6 445.2 226.7 496.2 234.4 496.9ZM190.3 404C190.3 396.5 184.2 390.4 176.7 390.4H158.2V428.6H176.7C184.2 428.6 190.3 422.5 190.3 415V404Z" fill="#EFE3D3"/>
<path fill-rule="evenodd" clip-rule="evenodd" d="M161.5 594.1V597.8H137.3V594.9C137.3 594.5 137.2 594.133 137 593.8L127.2 570.1H120.9V591.8C120.9 592.3 121.1 592.8 121.4 593.2L124.4 597.8H98.8L101.4 592.1C101.533 591.767 101.6 591.4 101.6 591V532.5C101.6 532.5 100.5 527.6 97.7 526.9V524.1H137.8C148.6 524.1 157.4 532.9 157.4 543.7V553.1C157.4 560.5 151.4 566.5 144.1 566.5C144.1 566.5 157.4 593.7 161.5 594.1ZM138 544.5C138 540.5 134.8 537.3 130.7 537.3H120.9V557.6H130.7C134.8 557.6 138 554.4 138 550.4V544.5Z" fill="#EFE3D3"/>
<path d="M357.7 365.6H408.9L404.7 375.5C404.1 376.7 404 378 404.2 379.3L417.4 452.5L436.2 377.5C436.5 376.3 436.3 375 435.8 373.9L431.4 365.6H468V373L485.6 451.6L501 379.7C501.3 378.3 501.2 376.9 500.5 375.6L495.5 365.6H539.8L535.2 376.3C534.933 376.967 534.7 377.7 534.5 378.5L504.9 505.2H468L451.1 429.2L432.3 505.2H395.7L367.2 380.3C366.9 379.2 366.3 378.1 365.4 377.2L360.6 372.5C359.8 371.7 359.2 370.7 358.9 369.6L357.7 365.6Z" fill="#EFE3D3"/>
<path d="M546.4 366.8H586.7L626.1 446.6V381.4C626.1 378.6 624.9 376 622.7 374.3C620.2 372.4 617.4 369.6 617.4 366.8H662.7C662.7 366.8 661.6 370.5 659.4 373.4C658.2 375 657.7 376.9 657.7 378.8V513.6L624.4 511.1L583 423.5V493.5C583 495 583.5 496.4 584.4 497.6C586.4 500.3 589.7 505.3 588.9 508.5L544.4 503.8C544.4 503.8 548.4 497.3 551.3 494.4C552.9 493 553.7 491 553.7 488.9V381.3C553.7 379.8 553.3 378.2 552.5 376.9L546.4 366.8Z" fill="#EFE3D3"/>
<path d="M105.3 412.9V401.8C105.3 380.1 87.7 362.5 65.9 362.5H49.9C22.5 362.5 0.299988 384.7 0.299988 412.1V468.3C0.299988 492.8 20.2 512.8 44.8 512.8H57.8C84 512.8 105.3 491.5 105.3 465.3V458.9L70.6 459.9V475C70.6 481.9 65 487.6 58 487.6C51.9 487.6 46.4 485.1 42.4 481.1C38.4 477.1 35.9 471.6 35.9 465.5V408.8C35.9 397.7 44.9 388.8 55.9 388.8H57C64.5 388.8 70.6 394.9 70.6 402.4V415.6L105.3 412.9Z" fill="#EFE3D3"/>
<path d="M324.1 524.6H376.6V542.5C376.6 542.5 374.2 540.7 369.2 540.4C364.3 540.2 346.5 539.4 346.5 539.4V555.8H369.5V570.6L346.5 569.8V587C346.5 588.3 346.8 589.5 347.3 590.6C348.5 592.7 350.4 596.2 350.4 597.1H324.1C324.1 597.1 325.3 593.7 326.7 590.8C327.1 589.9 327.3 588.9 327.3 587.8V534.2C327.3 533 327.1 531.8 326.6 530.7L324.1 524.6Z" fill="#EFE3D3"/>
<path d="M390.6 524.6H413.4C414.4 524.6 415.1 525.4 415 526.4C414.7 528 414.1 530.3 412.5 532.1C412 532.6 411.7 533.3 411.7 534V587.8C411.7 588.8 412 589.8 412.5 590.7L414.7 593.9C415.6 595.3 414.6 597.1 412.9 597.1H390.9C390.3 597.1 389.8 596.6 389.9 596C390.3 594.4 391.1 591.5 392.4 589.9C392.7 589.5 392.8 589 392.8 588.6V531.9C392.8 531.5 392.7 531.133 392.5 530.8C391.9 529.9 390.4 527.6 389.7 526C389.4 525.3 389.9 524.6 390.6 524.6Z" fill="#EFE3D3"/>
<path d="M428.8 524.6H451.1L476.3 566.2L475.1 533.1C475.1 531.9 474.7 530.7 474.2 529.7L471.1 523.8H498.3L494.2 529.1C493.1 530.5 492.5 532.2 492.5 534V597.1H475.6L449.8 556.2V590.5C449.8 590.5 453.6 595.1 453.4 597.1H428.8C428.8 597.1 430.1 592.1 432.7 590.6V532.8L428.5 527.3L428.8 524.6Z" fill="#EFE3D3"/>
<path d="M538.4 560.2L538 571.8H548.1V577.2C548.1 581.7 544.5 585.3 540 585.3H538.8C532.3 585.3 527 580 527 573.5V549.1C527 542.9 532 537.8 538.2 537.8C543.7 537.8 548.1 542.3 548.1 547.7V550H568.5C567.9 534.8 555.4 522.7 540 522.7H535.1C519.3 522.7 506.4 535.5 506.4 551.3V571.2C506.4 587.4 519.6 600.5 535.8 600.5H543C557.1 600.5 568.5 589.1 568.5 575V560.5L538.4 560.2Z" fill="#EFE3D3"/>
</svg>
